<svg xmlns="http://www.w3.org/2000/svg" xmlns:xlink="http://www.w3.org/1999/xlink" width="21.5" height="15" viewBox="0 0 21.5 15">
  <defs>
    <clipPath id="clip-_12_zdefiniowane_koszty_usług">
      <rect width="21.5" height="15"/>
    </clipPath>
  </defs>
  <g id="_12_zdefiniowane_koszty_usług" data-name="12 zdefiniowane koszty usług" clip-path="url(#clip-_12_zdefiniowane_koszty_usług)">
    <g id="dollar" transform="translate(0 -75.4)">
      <g id="Group_531" data-name="Group 531" transform="translate(0 75.4)">
        <g id="Group_530" data-name="Group 530" transform="translate(0 0)">
          <path id="Path_376" data-name="Path 376" d="M21.438,83.718c-.026-.594-.607-1.068-1.73-1.41a12.327,12.327,0,0,0-3.174-.444V77.305a.462.462,0,0,0-.064-.214c-.12-.517-.7-.936-1.717-1.243a12.72,12.72,0,0,0-3.537-.449,12.4,12.4,0,0,0-3.5.449c-.773.239-1.7.684-1.7,1.448a.787.787,0,0,0,.013.141l.047,1.948a5.112,5.112,0,1,0,2.264,8.989,12.635,12.635,0,0,0,2.734.3c.218,1.183,2.781,1.726,5.169,1.726a12.227,12.227,0,0,0,3.5-.457c.773-.239,1.7-.688,1.7-1.453V83.8A.517.517,0,0,0,21.438,83.718Zm-5.8-4.05c0,.056-.205.35-1.132.632a12.093,12.093,0,0,1-3.29.414,12.223,12.223,0,0,1-2.909-.32c-.013,0-.021,0-.034-.009a4.929,4.929,0,0,0-1.337-.756l-.03-1.2a4.734,4.734,0,0,0,.923.355,12.628,12.628,0,0,0,3.388.414,12.742,12.742,0,0,0,3.537-.449,5.124,5.124,0,0,0,.927-.372v1.119A.245.245,0,0,0,15.641,79.668ZM7.968,76.673a11.54,11.54,0,0,1,3.247-.414,11.928,11.928,0,0,1,3.29.414c.927.282,1.132.572,1.132.628s-.209.355-1.136.632a12.072,12.072,0,0,1-3.285.41,11.73,11.73,0,0,1-3.149-.385c-.919-.265-1.175-.555-1.2-.649,0-.009,0-.009,0-.009C6.87,77.22,7.066,76.947,7.968,76.673Zm.013,10.886a4.258,4.258,0,1,1-2.867-7.4,4.351,4.351,0,0,1,1.26.188,4.276,4.276,0,0,1,2.914,3.208,4.468,4.468,0,0,1,.085.859A4.233,4.233,0,0,1,7.981,87.559Zm1.085.094a5.159,5.159,0,0,0,.82-1.406c.363.03.739.051,1.132.056v.077l.026,1.448A13.345,13.345,0,0,1,9.066,87.653ZM10.206,83.9c.248.017.508.026.773.03l.026,1.512c-.3,0-.594-.017-.876-.038a5.252,5.252,0,0,0,.1-1C10.228,84.239,10.219,84.073,10.206,83.9Zm1.051-.82h-.043c-.41,0-.807-.017-1.175-.043a5.065,5.065,0,0,0-.765-1.589,15.387,15.387,0,0,0,1.935.124,12.752,12.752,0,0,0,3.542-.449,5.4,5.4,0,0,0,.923-.367v1.119C13.842,81.928,11.958,82.313,11.257,83.082Zm.564.679a.032.032,0,0,1,0-.017c.038-.115.342-.4,1.226-.645a11.627,11.627,0,0,1,3.046-.363h.073a11.974,11.974,0,0,1,3.29.406c.91.273,1.124.555,1.128.619v0c0,.064-.218.359-1.166.641a11.868,11.868,0,0,1-3.247.4,11.918,11.918,0,0,1-3.149-.38c-.919-.265-1.171-.56-1.2-.649Zm7.673,5.37a11.406,11.406,0,0,1-3.251.419A11.626,11.626,0,0,1,13,89.144c-.9-.278-1.089-.564-1.089-.628v-.009l-.021-1.239a5.567,5.567,0,0,0,1.064.389,13.148,13.148,0,0,0,3.208.367,12.634,12.634,0,0,0,3.529-.449,5.476,5.476,0,0,0,.9-.363v1.282h0C20.592,88.554,20.4,88.849,19.494,89.131Zm1.1-3.144h0c0,.043-.026.094-.026.141s-.2.35-1.124.632a11.82,11.82,0,0,1-3.277.41c-2.367,0-3.96-.534-4.294-.948l0-.359-.017-.983a5.242,5.242,0,0,0,.931.359,12.628,12.628,0,0,0,3.388.414,12.788,12.788,0,0,0,3.49-.436,4.893,4.893,0,0,0,.936-.367Z" transform="translate(0 -75.4)" fill="#2f2f37"/>
        </g>
      </g>
      <g id="Group_533" data-name="Group 533" transform="translate(3.503 80.907)">
        <g id="Group_532" data-name="Group 532" transform="translate(0 0)">
          <path id="Path_377" data-name="Path 377" d="M85.166,208.406a1.615,1.615,0,0,0-1.555-1.175.758.758,0,1,1,.76-.756.427.427,0,1,0,.854,0,1.615,1.615,0,0,0-1.175-1.555v-.192a.427.427,0,1,0-.854,0v.184a1.612,1.612,0,0,0,.414,3.17.758.758,0,1,1-.756.76.427.427,0,0,0-.854,0,1.623,1.623,0,0,0,1.2,1.559v.372a.427.427,0,1,0,.854,0V210.4A1.612,1.612,0,0,0,85.166,208.406Z" transform="translate(-82 -204.3)" fill="#2f2f37"/>
        </g>
      </g>
    </g>
  </g>
</svg>
