<svg xmlns="http://www.w3.org/2000/svg" xmlns:xlink="http://www.w3.org/1999/xlink" width="15" height="15" viewBox="0 0 15 15">
  <defs>
    <clipPath id="clip-_1_kokpit">
      <rect width="15" height="15"/>
    </clipPath>
  </defs>
  <g id="_1_kokpit" data-name="1 kokpit" clip-path="url(#clip-_1_kokpit)">
    <path id="start" d="M8.007,7.665A1.171,1.171,0,1,1,7.1,6.928L8.919,4.671a.586.586,0,0,1,.912.736ZM7.26,13.818c-.114.007-.231.01-.346.01a5.742,5.742,0,1,1,5.741-5.849.586.586,0,1,0,1.172-.021A6.914,6.914,0,0,0,7.5,1.2V.586a.586.586,0,0,0-1.172,0V1.2a6.914,6.914,0,0,0-4.3,11.778A6.869,6.869,0,0,0,6.914,15c.138,0,.278,0,.416-.012a.586.586,0,0,0-.069-1.17ZM10.9,1.447l1.581,1.312a.586.586,0,0,0,.749-.9L11.654.545a.586.586,0,1,0-.749.9ZM.968,2.894a.584.584,0,0,0,.37-.132L2.948,1.45a.586.586,0,1,0-.74-.908L.6,1.854a.586.586,0,0,0,.371,1.04ZM15,11.484a1.036,1.036,0,0,1-.5.892l-4.064,2.471a1.044,1.044,0,0,1-1.587-.892V9.014a1.044,1.044,0,0,1,1.587-.892L14.5,10.592a1.036,1.036,0,0,1,.5.892Zm-1.29,0-3.69-2.244v4.487Z" fill="#2f2f37"/>
  </g>
</svg>
