<svg xmlns="http://www.w3.org/2000/svg" xmlns:xlink="http://www.w3.org/1999/xlink" width="17.8" height="15" viewBox="0 0 17.8 15">
  <defs>
    <clipPath id="clip-_7_lista_ipr">
      <rect width="17.8" height="15"/>
    </clipPath>
  </defs>
  <g id="_7_lista_ipr" data-name="7 lista ipr" clip-path="url(#clip-_7_lista_ipr)">
    <g id="client" transform="translate(0.076 -0.5)">
      <path id="Path_907" data-name="Path 907" d="M15,3.441H10.882V3.147A2.65,2.65,0,0,0,8.235.5H2.647A2.65,2.65,0,0,0,0,3.147V6.676A2.65,2.65,0,0,0,2.647,9.324h.294v2.353a.294.294,0,0,0,.5.208L6,9.324h.761v.294a2.65,2.65,0,0,0,2.647,2.647h1.643L14.2,15.414a.294.294,0,0,0,.5-.208V12.265H15a2.65,2.65,0,0,0,2.647-2.647V6.088A2.65,2.65,0,0,0,15,3.441ZM5.882,8.735a.294.294,0,0,0-.208.086L3.529,10.966V9.029a.294.294,0,0,0-.294-.294H2.647A2.061,2.061,0,0,1,.588,6.676V3.147A2.061,2.061,0,0,1,2.647,1.088H8.235a2.061,2.061,0,0,1,2.059,2.059v.294H9.412A2.65,2.65,0,0,0,6.765,6.088V8.735Zm11.176.882A2.061,2.061,0,0,1,15,11.676h-.588a.294.294,0,0,0-.294.294V14.5l-2.733-2.733a.294.294,0,0,0-.208-.086H9.412A2.061,2.061,0,0,1,7.353,9.618V6.088A2.061,2.061,0,0,1,9.412,4.029H15a2.061,2.061,0,0,1,2.059,2.059Zm0,0" fill="#2f2f37"/>
      <path id="Path_908" data-name="Path 908" d="M239.059,144.5h-6.765a.294.294,0,0,0,0,.588h6.765a.294.294,0,1,0,0-.588Zm0,0" transform="translate(-223.471 -138.706)" fill="#2f2f37"/>
      <path id="Path_909" data-name="Path 909" d="M239.059,192.5h-6.765a.294.294,0,0,0,0,.588h6.765a.294.294,0,1,0,0-.588Zm0,0" transform="translate(-223.471 -184.941)" fill="#2f2f37"/>
      <path id="Path_910" data-name="Path 910" d="M239.059,240.5h-6.765a.294.294,0,0,0,0,.588h6.765a.294.294,0,1,0,0-.588Zm0,0" transform="translate(-223.471 -231.176)" fill="#2f2f37"/>
      <path id="Path_911" data-name="Path 911" d="M40.294,65.088h6.176a.294.294,0,0,0,0-.588H40.294a.294.294,0,0,0,0,.588Zm0,0" transform="translate(-38.529 -61.647)" fill="#2f2f37"/>
      <path id="Path_912" data-name="Path 912" d="M44.706,112.5H40.294a.294.294,0,1,0,0,.588h4.412a.294.294,0,1,0,0-.588Zm0,0" transform="translate(-38.529 -107.882)" fill="#2f2f37"/>
      <path id="Path_913" data-name="Path 913" d="M44.412,160.5H40.294a.294.294,0,0,0,0,.588h4.118a.294.294,0,0,0,0-.588Zm0,0" transform="translate(-38.529 -154.118)" fill="#2f2f37"/>
    </g>
  </g>
</svg>
