<svg xmlns="http://www.w3.org/2000/svg" xmlns:xlink="http://www.w3.org/1999/xlink" width="16" height="15" viewBox="0 0 16 15">
  <defs>
    <clipPath id="clip-_8_lista_usług">
      <rect width="16" height="15"/>
    </clipPath>
  </defs>
  <g id="_8_lista_usług" data-name="8 lista usług" clip-path="url(#clip-_8_lista_usług)">
    <g id="handshake" transform="translate(0 -13.955)">
      <path id="Path_373" data-name="Path 373" d="M14.613,15.291a4.6,4.6,0,0,0-6.638.165,4.581,4.581,0,1,0-6.52,6.426,1.606,1.606,0,0,0,.9,2.742,1.607,1.607,0,0,0,1.594,1.71,1.6,1.6,0,0,0,2,1.438,1.606,1.606,0,0,0,2.68.715c.49-.487.88-.794.9-1.532a1.607,1.607,0,0,0,1.523-1.542A1.607,1.607,0,0,0,12.6,23.871a1.608,1.608,0,0,0,1.544-1.642l.465-.465A4.582,4.582,0,0,0,14.613,15.291ZM2.157,22.627l.437-.437a.579.579,0,0,1,.819.819l-.437.437a.579.579,0,0,1-.819-.819Zm1.218,2.106a.575.575,0,0,1,.17-.41l.437-.437a.579.579,0,0,1,.819.819l-.386.386a.607.607,0,0,1-.461.221A.582.582,0,0,1,3.375,24.733Zm1.763,1.9a.582.582,0,0,1,0-.819l.386-.386a.587.587,0,0,1,.871-.051.58.58,0,0,1,0,.819l-.437.437a.58.58,0,0,1-.819,0Zm3.21.694-.437.437a.579.579,0,0,1-.819,0,.582.582,0,0,1,0-.819l.437-.437a.579.579,0,1,1,.819.819Zm4.608-4.646a.582.582,0,0,1-.819,0L9.861,20.405l-.723.723L11.414,23.4a.579.579,0,0,1-.819.819L8.357,21.986l-.039-.039-.723.723.039.039,2.237,2.237a.579.579,0,1,1-.819.819h0a1.6,1.6,0,0,0-1.521-.4,1.61,1.61,0,0,0-1.543-1.184A1.608,1.608,0,0,0,4.6,22.709,1.605,1.605,0,0,0,2.221,21.2a3.561,3.561,0,1,1,5.031-5.022L5.988,17.444,7,18.457a2.319,2.319,0,0,0,2.872.321l3.084,3.084a.58.58,0,0,1,0,.819Zm.934-1.641-.156.156-.055-.058L9.913,17.372l-.362.362a1.293,1.293,0,0,1-1.827,0l-.29-.29,1.43-1.43a3.554,3.554,0,0,1,5.026,5.027Z" transform="translate(0)" fill="#2f2f37"/>
    </g>
  </g>
</svg>
