<svg xmlns="http://www.w3.org/2000/svg" xmlns:xlink="http://www.w3.org/1999/xlink" width="13" height="15" viewBox="0 0 13 15">
  <defs>
    <clipPath id="clip-_10_powiadomienia">
      <rect width="13" height="15"/>
    </clipPath>
  </defs>
  <g id="_10_powiadomienia" data-name="10 powiadomienia" clip-path="url(#clip-_10_powiadomienia)">
    <path id="bell" d="M65.058,11.937a2.331,2.331,0,0,1-.708-.964,11.159,11.159,0,0,1-.738-4.41c0-.006,0-.011,0-.017a4.256,4.256,0,0,0-2.505-3.86V1.671A1.671,1.671,0,0,0,59.438,0H59.3a1.671,1.671,0,0,0-1.668,1.671V2.686a4.256,4.256,0,0,0-2.506,3.877,11.159,11.159,0,0,1-.738,4.41,2.331,2.331,0,0,1-.708.964.427.427,0,0,0-.235.486.447.447,0,0,0,.441.343h3.221a2.263,2.263,0,0,0,4.525,0h3.221a.447.447,0,0,0,.441-.343A.427.427,0,0,0,65.058,11.937ZM58.51,1.671A.791.791,0,0,1,59.3.88h.138a.791.791,0,0,1,.789.791V2.4a4.256,4.256,0,0,0-1.717,0v-.73Zm.858,12.449a1.387,1.387,0,0,1-1.383-1.353h2.767A1.387,1.387,0,0,1,59.369,14.12Zm1.77-2.234H54.887a4.606,4.606,0,0,0,.23-.4A11.126,11.126,0,0,0,56,6.563a3.364,3.364,0,1,1,6.728,0c0,.005,0,.011,0,.016a11.1,11.1,0,0,0,.888,4.9,4.609,4.609,0,0,0,.23.4Z" transform="translate(-44.803 -20.777) rotate(21)" fill="#2f2f37"/>
  </g>
</svg>
