<svg xmlns="http://www.w3.org/2000/svg" xmlns:xlink="http://www.w3.org/1999/xlink" width="15" height="15" viewBox="0 0 15 15">
  <defs>
    <clipPath id="clip-_13_raporty">
      <rect width="15" height="15"/>
    </clipPath>
  </defs>
  <g id="_13_raporty" data-name="13 raporty" clip-path="url(#clip-_13_raporty)">
    <g id="analytics">
      <g id="Group_539" data-name="Group 539">
        <g id="Group_538" data-name="Group 538">
          <path id="Path_380" data-name="Path 380" d="M14.707,6.116H12.832a.293.293,0,0,0-.293.293V8.78a.293.293,0,0,0,.586,0V6.7h1.289v7.712H13.125V10.085a.293.293,0,1,0-.586,0v4.329h-.586V8.35a.293.293,0,0,0-.293-.293H9.785a.293.293,0,0,0-.293.293v6.064H8.906V10.4a.293.293,0,0,0-.293-.293H6.738a.293.293,0,0,0-.293.293v4.014H5.859V12.081a.293.293,0,0,0-.293-.293H3.691a.293.293,0,0,0-.293.293v2.333H.879a.293.293,0,0,1-.293-.293V.879A.293.293,0,0,1,.879.586H8.437V2.52a.88.88,0,0,0,.879.879h1.934V7a.293.293,0,0,0,.586,0v-3.9a.293.293,0,0,0-.086-.207L8.937.086A.293.293,0,0,0,8.73,0H.879A.88.88,0,0,0,0,.879V14.121A.88.88,0,0,0,.879,15H14.707A.293.293,0,0,0,15,14.707v-8.3A.293.293,0,0,0,14.707,6.116ZM9.023,1l1.812,1.812H9.316a.293.293,0,0,1-.293-.293ZM5.273,14.414H3.984v-2.04H5.273Zm3.047,0H7.031V10.693H8.32Zm3.047,0H10.078V8.643h1.289Z" fill="#2f2f37"/>
        </g>
      </g>
      <g id="Group_543" data-name="Group 543" transform="translate(1.57 1.603)">
        <g id="Group_542" data-name="Group 542">
          <path id="Path_382" data-name="Path 382" d="M56.3,54.729a.293.293,0,0,0-.293.293v.527a2.695,2.695,0,1,0,2.972,2.972H59.5a.293.293,0,0,0,.293-.293A3.5,3.5,0,0,0,56.3,54.729Zm0,5.607a2.109,2.109,0,0,1-.293-4.2v2.088a.293.293,0,0,0,.293.293h2.088A2.112,2.112,0,0,1,56.3,60.336Zm.293-2.4h0V55.33a2.918,2.918,0,0,1,2.605,2.605Z" transform="translate(-53.602 -54.729)" fill="#2f2f37"/>
        </g>
      </g>
      <g id="Group_545" data-name="Group 545" transform="translate(1.582 8.621)">
        <g id="Group_544" data-name="Group 544">
          <path id="Path_383" data-name="Path 383" d="M59.889,294.25h-5.6a.293.293,0,0,0,0,.586h5.6a.293.293,0,0,0,0-.586Z" transform="translate(-54 -294.25)" fill="#2f2f37"/>
        </g>
      </g>
      <g id="Group_547" data-name="Group 547" transform="translate(1.582 10.034)">
        <g id="Group_546" data-name="Group 546">
          <path id="Path_384" data-name="Path 384" d="M57.49,342.5h-3.2a.293.293,0,0,0,0,.586h3.2a.293.293,0,0,0,0-.586Z" transform="translate(-54 -342.5)" fill="#2f2f37"/>
        </g>
      </g>
    </g>
  </g>
</svg>
