<svg xmlns="http://www.w3.org/2000/svg" xmlns:xlink="http://www.w3.org/1999/xlink" width="15" height="15" viewBox="0 0 15 15">
  <defs>
    <clipPath id="clip-_4_specjalisci">
      <rect width="15" height="15"/>
    </clipPath>
  </defs>
  <g id="_4_specjalisci" data-name="4 specjalisci" clip-path="url(#clip-_4_specjalisci)">
    <path id="stethoscope" d="M14.14,11.489V9.867h0a2.523,2.523,0,0,0-5.046,0v2.518a1.736,1.736,0,0,1-3.472,0V9.056a4.4,4.4,0,0,0,4.233-4.2V4.6A1.32,1.32,0,0,0,8.9,3.332V1.025A1.026,1.026,0,0,0,7.873,0H7.137a.439.439,0,0,0,0,.879h.737a.147.147,0,0,1,.146.146V3.332A1.321,1.321,0,0,0,7.063,4.6v.261c0,1.243-2.048,1.936-3.246.974A1.321,1.321,0,0,1,3.3,4.6a1.32,1.32,0,0,0-.957-1.268V1.025A.146.146,0,0,1,2.492.879h.655a.439.439,0,0,0,0-.879H2.492A1.026,1.026,0,0,0,1.466,1.025V3.332A1.32,1.32,0,0,0,.51,4.6v.261a4.4,4.4,0,0,0,4.233,4.2h0v3.33a2.615,2.615,0,0,0,5.229,0V9.868a1.644,1.644,0,0,1,3.289,0v1.621h0a1.78,1.78,0,1,0,.879,0ZM1.389,4.861V4.6a.44.44,0,0,1,.439-.439h.155a.44.44,0,0,1,.439.439v.261a2.565,2.565,0,0,0,2.759,2.3,2.565,2.565,0,0,0,2.76-2.3V4.6a.44.44,0,0,1,.439-.439h.155a.44.44,0,0,1,.439.439v.261A3.126,3.126,0,0,1,7.837,7.245c-2.371,2.041-6.448.587-6.448-2.384ZM13.7,14.113a.9.9,0,1,1,0-1.8h0a.9.9,0,1,1,0,1.8Z" transform="translate(-0.51)" fill="#2f2f37"/>
  </g>
</svg>
