<svg xmlns="http://www.w3.org/2000/svg" xmlns:xlink="http://www.w3.org/1999/xlink" width="16" height="15" viewBox="0 0 16 15">
  <defs>
    <clipPath id="clip-_9_szkolenia">
      <rect width="16" height="15"/>
    </clipPath>
  </defs>
  <g id="_9_szkolenia" data-name="9 szkolenia" clip-path="url(#clip-_9_szkolenia)">
    <g id="calendar_2_" data-name="calendar (2)" transform="translate(0 -16)">
      <path id="Path_374" data-name="Path 374" d="M65.188,162.875a1.25,1.25,0,0,0,0,2.5h1.875a1.25,1.25,0,0,0,0-2.5h-.625v-.77l1.657-1.1h1.687a1.563,1.563,0,1,0,0-.625H68.095l-1.657-1.1v-.77H68a.313.313,0,0,0,.313-.312v-1.875A.313.313,0,0,0,68,156H64.25a.313.313,0,0,0-.312.313v1.875a.313.313,0,0,0,.313.313h1.563v.77l-1.657,1.1h-1.03v-.937a.313.313,0,0,0-.312-.312h-2.5a.313.313,0,0,0-.312.313v2.5a.313.313,0,0,0,.313.313h2.5a.313.313,0,0,0,.313-.312V161h1.03l1.657,1.1v.77Zm-.625-6.25h3.125v1.25H64.563Zm-2.062,5H60.625V159.75H62.5Zm8.813-1.875a.938.938,0,1,1-.937.938A.939.939,0,0,1,71.313,159.75Zm-5.187.063,1.312.874-1.312.874-1.312-.874Zm1.563,4.312a.626.626,0,0,1-.625.625H65.188a.625.625,0,0,1,0-1.25h1.875A.626.626,0,0,1,67.688,164.125Z" transform="translate(-58.125 -135.625)" fill="#2f2f37"/>
      <path id="Path_375" data-name="Path 375" d="M15.688,16.625H13.313v-.312a.313.313,0,0,0-.625,0v.313H10.813v-.312a.313.313,0,0,0-.625,0v.313H8.313v-.312a.313.313,0,0,0-.625,0v.313H5.813v-.312a.313.313,0,0,0-.625,0v.313H3.313v-.312a.313.313,0,0,0-.625,0v.313H.313A.313.313,0,0,0,0,16.938v13.75A.313.313,0,0,0,.313,31H6.594a.313.313,0,0,0,0-.625H.625V19.75h14.75V30.375H9.406a.313.313,0,0,0,0,.625h6.281A.313.313,0,0,0,16,30.688V16.938A.313.313,0,0,0,15.688,16.625ZM.625,19.125V17.25H2.688v.938a.313.313,0,0,0,.625,0V17.25H5.188v.938a.313.313,0,0,0,.625,0V17.25H7.688v.938a.313.313,0,0,0,.625,0V17.25h1.875v.938a.313.313,0,0,0,.625,0V17.25h1.875v.938a.313.313,0,0,0,.625,0V17.25h2.063v1.875Z" fill="#2f2f37"/>
      <circle id="Ellipse_6" data-name="Ellipse 6" cx="0.313" cy="0.313" r="0.313" transform="translate(7.688 30.375)" fill="#2f2f37"/>
    </g>
  </g>
</svg>
