<svg xmlns="http://www.w3.org/2000/svg" xmlns:xlink="http://www.w3.org/1999/xlink" width="15" height="15" viewBox="0 0 15 15">
  <defs>
    <clipPath id="clip-_5_uczestnicy">
      <rect width="15" height="15"/>
    </clipPath>
  </defs>
  <g id="_5_uczestnicy" data-name="5 uczestnicy" clip-path="url(#clip-_5_uczestnicy)">
    <g id="Outline" transform="translate(-7.1 -7.1)">
      <path id="Path_394" data-name="Path 394" d="M245.028,268.682a.241.241,0,0,0-.341,0l-.171.17-.472-.472a4.834,4.834,0,0,0-1.143-1.825l-.431-.431a.721.721,0,0,0-1.163.2l-.03-.03a5.471,5.471,0,0,0-2.016.712l-.371-.371a.723.723,0,1,0-1.023,1.023l1.429,1.429-.09.269a1.286,1.286,0,0,0,1.473,1.668l.777-.155a.481.481,0,0,1,.435.132l.238.238-.17.17a.241.241,0,0,0,0,.341l.682.682.341-.341-.511-.511,2.387-2.387.511.511.341-.341Zm-2.794,1.978a.962.962,0,0,0-.871-.264l-.777.155a.8.8,0,0,1-.92-1.043l.013-.04.406.406.341-.341-2.216-2.216a.241.241,0,0,1,.341-.341l1.534,1.534.341-.341-.682-.682a.241.241,0,0,1,.341-.341l.682.682h0l.341-.341-.512-.512a.241.241,0,0,1,.341-.341l.682.682.341-.341h0l-.17-.17a.241.241,0,1,1,.341-.341l.431.431a4.347,4.347,0,0,1,1.045,1.691.242.242,0,0,0,.058.094l.511.511-1.7,1.7Z" transform="translate(-223.61 -251.013)" fill="#2f2f37"/>
      <path id="Path_395" data-name="Path 395" d="M7.952,33.547a.24.24,0,0,0,.17-.071l.171-.17.472.472A4.834,4.834,0,0,0,9.908,35.6l.431.431a.721.721,0,0,0,1.163-.2l.03.03a.722.722,0,0,0,1.207-.318.729.729,0,0,0,.156.018.718.718,0,0,0,.652-.412l.371.371A.723.723,0,1,0,14.941,34.5L13.512,33.07l.09-.269a1.286,1.286,0,0,0-1.473-1.668l-.777.155a.481.481,0,0,1-.435-.132l-.238-.238.17-.17a.241.241,0,0,0,0-.341l-.682-.682-.341.341.511.511L7.952,32.965l-.511-.512-.341.341.682.682A.24.24,0,0,0,7.952,33.547ZM10.576,31.5a.963.963,0,0,0,.871.264l.777-.155a.8.8,0,0,1,.92,1.043l-.013.04-.406-.406-.341.341L14.6,34.84a.241.241,0,1,1-.341.341l-1.534-1.534-.341.341.682.682a.241.241,0,1,1-.341.341l-.682-.682h0l-.341.341.512.512a.241.241,0,1,1-.341.341l-.682-.682-.341.341h0l.17.17a.241.241,0,1,1-.341.341l-.431-.431A4.347,4.347,0,0,1,9.2,33.57a.241.241,0,0,0-.058-.094l-.511-.511,1.7-1.7Z" transform="translate(0 -21.944)" fill="#2f2f37"/>
      <path id="Path_396" data-name="Path 396" d="M266.326,11.5l-.03.03a.722.722,0,0,0,.318,1.207.719.719,0,0,0,.394.808l-.371.371a.723.723,0,0,0,1.023,1.023l1.429-1.429.269.09a1.286,1.286,0,0,0,1.668-1.473l-.155-.777a.481.481,0,0,1,.132-.435l.238-.238.17.17a.241.241,0,0,0,.341,0l.682-.682-.341-.341-.511.511-2.387-2.386.511-.511-.341-.341-.682.682a.241.241,0,0,0,0,.341l.17.171-.472.472a4.834,4.834,0,0,0-1.825,1.143l-.431.431a.721.721,0,0,0,.2,1.163Zm.141-.822.431-.431A4.347,4.347,0,0,1,268.588,9.2a.241.241,0,0,0,.094-.058l.511-.511,1.7,1.7-.238.238a.962.962,0,0,0-.264.871l.155.777a.8.8,0,0,1-1.043.92l-.04-.013.406-.406-.341-.341L267.319,14.6a.241.241,0,0,1-.341-.341l1.534-1.534-.341-.341-.682.682a.241.241,0,0,1-.341-.341l.682-.682h0l-.341-.341-.512.512a.241.241,0,0,1-.341-.341l.682-.682-.341-.341h0l-.17.17a.241.241,0,1,1-.341-.341Z" transform="translate(-251.014)" fill="#2f2f37"/>
      <path id="Path_397" data-name="Path 397" d="M35.833,241.311l.03-.03a.722.722,0,0,0-.318-1.207.719.719,0,0,0-.394-.808l.371-.371a.723.723,0,1,0-1.023-1.023L33.07,239.3l-.269-.09a1.286,1.286,0,0,0-1.668,1.473l.155.777a.481.481,0,0,1-.132.435l-.238.238-.17-.17a.241.241,0,0,0-.341,0l-.682.682.341.341.511-.511,2.387,2.386-.511.511.341.341.682-.682a.241.241,0,0,0,0-.341l-.17-.171.472-.472A4.834,4.834,0,0,0,35.6,242.9l.431-.431a.721.721,0,0,0-.2-1.163Zm-.141.822-.431.431a4.347,4.347,0,0,1-1.691,1.045.242.242,0,0,0-.094.058l-.511.511-1.7-1.7.238-.238a.962.962,0,0,0,.264-.871l-.155-.777a.8.8,0,0,1,1.043-.92l.04.013-.406.406.341.341,2.216-2.216a.241.241,0,1,1,.341.341l-1.534,1.534.341.341.682-.682a.241.241,0,0,1,.341.341l-.682.682h0l.341.341.512-.512a.241.241,0,0,1,.341.341l-.682.682.341.341h0l.17-.17a.241.241,0,1,1,.341.341Z" transform="translate(-21.944 -223.613)" fill="#2f2f37"/>
    </g>
  </g>
</svg>
