<svg xmlns="http://www.w3.org/2000/svg" xmlns:xlink="http://www.w3.org/1999/xlink" width="15" height="15" viewBox="0 0 15 15">
  <defs>
    <clipPath id="clip-_6_zespół_ork">
      <rect width="15" height="15"/>
    </clipPath>
  </defs>
  <g id="_6_zespół_ork" data-name="6 zespół ork" clip-path="url(#clip-_6_zespół_ork)">
    <g id="teamwork_1_" data-name="teamwork (1)">
      <path id="Path_902" data-name="Path 902" d="M1.172,248.725a1.172,1.172,0,1,0,0,2.344v1.26a.293.293,0,0,0,.293.293H6.328a.293.293,0,0,0,.293-.293v-1.607a.293.293,0,0,0-.391-.276.576.576,0,0,1-.195.037.586.586,0,0,1,0-1.172.575.575,0,0,1,.195.037.293.293,0,0,0,.391-.276v-1.607a.293.293,0,0,0-.293-.293H5.068a1.172,1.172,0,0,0-2.344,0H1.465a.293.293,0,0,0-.293.293Zm.195.623a.293.293,0,0,0,.391-.276v-1.314H3.071a.293.293,0,0,0,.276-.391.576.576,0,0,1-.037-.195.586.586,0,0,1,1.172,0,.576.576,0,0,1-.037.195.293.293,0,0,0,.276.391H6.035v.967a1.172,1.172,0,0,0,0,2.344v.967H1.758v-1.314a.293.293,0,0,0-.391-.276.576.576,0,0,1-.195.037.586.586,0,1,1,0-1.172A.575.575,0,0,1,1.366,249.347Z" transform="translate(0 -238.793)" fill="#2f2f37"/>
      <path id="Path_903" data-name="Path 903" d="M291.449,41.553v-1.26a.293.293,0,0,0-.293-.293h-4.863a.293.293,0,0,0-.293.293V41.9a.293.293,0,0,0,.391.276.575.575,0,0,1,.195-.037.586.586,0,0,1,0,1.172.576.576,0,0,1-.195-.037.293.293,0,0,0-.391.276v1.607a.293.293,0,0,0,.293.293h1.26a1.172,1.172,0,0,0,2.344,0h1.26a.293.293,0,0,0,.293-.293V43.9a1.172,1.172,0,0,0,0-2.344Zm0,1.758a.576.576,0,0,1-.195-.037.293.293,0,0,0-.391.276v1.314H289.55a.293.293,0,0,0-.276.391.575.575,0,0,1,.037.195.586.586,0,0,1-1.172,0,.576.576,0,0,1,.037-.195.293.293,0,0,0-.276-.391h-1.314V43.9a1.172,1.172,0,0,0,0-2.344v-.967h4.277V41.9a.293.293,0,0,0,.391.276.575.575,0,0,1,.195-.037.586.586,0,0,1,0,1.172Z" transform="translate(-277.621 -38.828)" fill="#2f2f37"/>
      <path id="Path_904" data-name="Path 904" d="M45.156,1.172H43.9a1.172,1.172,0,1,0-2.344,0h-1.26A.293.293,0,0,0,40,1.465V6.328a.293.293,0,0,0,.293.293H41.9a.293.293,0,0,0,.276-.391.576.576,0,0,1-.037-.195.586.586,0,0,1,1.172,0,.576.576,0,0,1-.037.195.293.293,0,0,0,.276.391h1.607a.293.293,0,0,0,.293-.293V5.068a1.172,1.172,0,0,0,0-2.344V1.465A.293.293,0,0,0,45.156,1.172ZM46.035,3.9a.587.587,0,0,1-.586.586.576.576,0,0,1-.195-.037.293.293,0,0,0-.391.276V6.035H43.9a1.172,1.172,0,0,0-2.344,0h-.967V1.758H41.9a.293.293,0,0,0,.276-.391.576.576,0,0,1-.037-.195.586.586,0,1,1,1.172,0,.576.576,0,0,1-.037.195.293.293,0,0,0,.276.391h1.314V3.071a.293.293,0,0,0,.391.276.575.575,0,0,1,.195-.037A.587.587,0,0,1,46.035,3.9Z" transform="translate(-38.828)" fill="#2f2f37"/>
      <path id="Path_905" data-name="Path 905" d="M249.311,286.124a.293.293,0,0,0-.239-.124h-1.607a.293.293,0,0,0-.293.293v1.26a1.172,1.172,0,0,0,0,2.344v1.26a.293.293,0,0,0,.293.293h1.26a1.172,1.172,0,0,0,2.344,0h1.26a.293.293,0,0,0,.293-.293v-1.113a.293.293,0,0,0-.586,0v.82h-1.314a.293.293,0,0,0-.276.391.575.575,0,0,1,.037.195.586.586,0,0,1-1.172,0,.575.575,0,0,1,.037-.195.293.293,0,0,0-.276-.391h-1.314V289.55a.293.293,0,0,0-.391-.276.576.576,0,0,1-.195.037.586.586,0,0,1,0-1.172.576.576,0,0,1,.195.037.293.293,0,0,0,.391-.276v-1.314h.967a1.172,1.172,0,0,0,2.344,0h.967v2.07a.293.293,0,0,0,.586,0v-2.363a.293.293,0,0,0-.293-.293h-1.607a.293.293,0,0,0-.276.391.575.575,0,0,1,.037.195.586.586,0,0,1-1.172,0,.575.575,0,0,1,.037-.195A.293.293,0,0,0,249.311,286.124Z" transform="translate(-238.793 -277.621)" fill="#2f2f37"/>
    </g>
  </g>
</svg>
